<svg width="12" height="20" viewBox="0 0 12 20" fill="none" xmlns="http://www.w3.org/2000/svg">
<path d="M0.93918 0.454072C0.657973 0.735364 0.5 1.11683 0.5 1.51457C0.5 1.91232 0.657973 2.29378 0.93918 2.57507L8.36418 10.0001L0.93918 17.4251C0.665943 17.708 0.514751 18.0869 0.518168 18.4802C0.521586 18.8735 0.67934 19.2497 0.957452 19.5278C1.23556 19.8059 1.61178 19.9637 2.00508 19.9671C2.39837 19.9705 2.77728 19.8193 3.06018 19.5461L11.5457 11.0606C11.8269 10.7793 11.9849 10.3978 11.9849 10.0001C11.9849 9.60233 11.8269 9.22086 11.5457 8.93957L3.06018 0.454072C2.77889 0.172866 2.39743 0.0148926 1.99968 0.0148926C1.60193 0.0148926 1.22047 0.172866 0.93918 0.454072Z" fill="#224C4F"/>
</svg>
